<svg xmlns="http://www.w3.org/2000/svg" width="14.349" height="15.088" viewBox="0 0 14.349 15.088">
    <defs>
        <style>
            .cls-2{fill:#747474}
        </style>
    </defs>
    <g id="noun_filter_737854" transform="translate(62.387 123.816)">
        <g id="Group_267" transform="translate(-62.387 -123.816)">
            <path id="Path_353" fill="#4d4848" d="M-235.351 376.689a.777.777 0 0 0-.756-.689h-12.87a.717.717 0 0 0-.722.722v2a.216.216 0 0 0 .067.168l5.7 6.62v5.326a.262.262 0 0 0 .134.218.312.312 0 0 0 .118.034.317.317 0 0 0 .134-.034l2.319-1.445a.287.287 0 0 0 .118-.218v-3.881l5.7-6.62a.3.3 0 0 0 .067-.168v-2.033zm-.5 1.932l-5.7 6.62a.3.3 0 0 0-.067.168v3.848l-1.815 1.126v-4.973a.216.216 0 0 0-.067-.168l-5.7-6.62v-1.9a.222.222 0 0 1 .218-.218h12.87a.268.268 0 0 1 .252.235z" transform="translate(249.7 -376)"/>
            <path id="Path_354" d="M-232.6 390.7h-8.35a.258.258 0 0 0-.252.252.258.258 0 0 0 .252.252h8.35a.258.258 0 0 0 .252-.252.258.258 0 0 0-.252-.252z" class="cls-2" transform="translate(242.628 -388.23)"/>
            <path id="Path_355" d="M-182.771 390.7h-1.277a.258.258 0 0 0-.252.252.258.258 0 0 0 .252.252h1.277a.258.258 0 0 0 .252-.252.258.258 0 0 0-.252-.252z" class="cls-2" transform="translate(195.288 -388.23)"/>
        </g>
    </g>
</svg>
