<svg xmlns="http://www.w3.org/2000/svg" width="22.838" height="22.835" viewBox="0 0 22.838 22.835">
    <g>
        <g>
            <path fill="#4d4848" d="M26.814 12.528l-3.673-3.673-3.673-3.673a2.082 2.082 0 0 0-3.527 1.462 2.053 2.053 0 0 0 .6 1.453.779.779 0 0 1-.141 1.225L5.576 14.4a.637.637 0 0 0-.35.458.629.629 0 0 0 .175.55l3.506 3.515-4.272 7.589a.625.625 0 0 0 .833.854l7.6-4.277 3.51 3.511a.629.629 0 0 0 .55.175.637.637 0 0 0 .458-.35l5.064-10.786a.775.775 0 0 1 1.249-.187 2.053 2.053 0 0 0 1.462.6 2.082 2.082 0 0 0 1.453-3.527zM6.825 25.171l3.011-5.343 2.332 2.332zM25.939 14.56a.833.833 0 0 1-1.158 0 2.032 2.032 0 0 0-3.232.512l-4.7 9.994-9.936-9.89 10.027-4.734a2.032 2.032 0 0 0 .487-3.219.833.833 0 0 1 1.158-1.158l3.673 3.673 3.673 3.673a.833.833 0 0 1 0 1.158z" transform="translate(0 .001) translate(0 -.001) translate(-4.56 -4.599)"/>
        </g>
    </g>
</svg>
