<svg xmlns="http://www.w3.org/2000/svg" width="2109" height="268.105" viewBox="0 0 2109 268.105">
    <defs>
        <style>
            .prefix__cls-1{fill:#93cae2}.prefix__cls-2{fill:#fbcc34}.prefix__cls-3{fill:#ff1d25}.prefix__cls-4{fill:#06aae9}.prefix__cls-5{fill:#7ac943}.prefix__cls-6{fill:#ed1c24}
        </style>
    </defs>
    <g id="prefix__welcome_illustration" data-name="welcome illustration" transform="translate(-10.104 -39.775)">
        <g id="prefix__flags" transform="translate(8.68 39.775)">
            <path id="prefix__Path_245" d="M266.276 0q-2.282 1.9-4.564 3.781A450.888 450.888 0 0 1 3.436 104.923l-1.876.114 50.2 50.235L74.585 95.9l54.769 41.1 18.256-63.931 59.333 41.1 4.564-73.069 54.769 27.4z" class="prefix__cls-1" data-name="Path 245" transform="translate(-.058)"/>
            <g id="prefix__Group_62" data-name="Group 62" transform="translate(1.424 141.572)">
                <path id="prefix__Path_246" d="M1.424 256c1.629 1.014 3.263 2.023 4.906 3.014a420.239 420.239 0 0 0 259.628 59.643l1.785-.178-38.037 56.259-31.949-54.8-45.641 50.235L129.3 310.8l-54.773 45.67-13.692-68.5L10.63 324.5 1.429 256" class="prefix__cls-2" data-name="Path 246" transform="translate(-1.424 -251.433)"/>
                <circle id="prefix__Ellipse_34" cx="9.134" cy="9.134" r="9.134" class="prefix__cls-2" data-name="Ellipse 34" transform="translate(223.692)"/>
            </g>
            <path id="prefix__Path_247" d="M3.9 72.8l6.459-6.459 9.141 9.135-6.459 6.459z" class="prefix__cls-2" data-name="Path 247" transform="translate(-1.064 -28.471)"/>
            <path id="prefix__Path_248" d="M321.56 24h9.134v13.7h-9.134z" class="prefix__cls-3" data-name="Path 248" transform="translate(-137.499 -10.299)"/>
            <path id="prefix__Path_249" d="M211.9 11.478l9.133-9.133L227.5 8.8l-9.133 9.133z" class="prefix__cls-4" data-name="Path 249" transform="translate(-90.403 -1.006)"/>
            <g id="prefix__Group_63" data-name="Group 63" transform="translate(80.318 60.705)">
                <path id="prefix__Path_250" d="M139.908 115.473l9.133-9.133 6.459 6.46-9.133 9.133z" class="prefix__cls-5" data-name="Path 250" transform="translate(-139.908 -106.34)"/>
                <path id="prefix__Path_251" d="M419.91 144.8l6.459-6.459 9.133 9.133-6.459 6.459z" class="prefix__cls-5" data-name="Path 251" transform="translate(-260.07 -120.075)"/>
            </g>
            <path id="prefix__Path_252" d="M281.56 216h9.134v13.7h-9.134z" class="prefix__cls-3" data-name="Path 252" transform="translate(-120.319 -92.695)"/>
            <path id="prefix__Path_253" d="M323.909 307.466l9.133-9.133 6.459 6.459-9.133 9.133z" class="prefix__cls-5" data-name="Path 253" transform="translate(-138.511 -128.028)"/>
            <path id="prefix__Path_254" d="M139.908 264.8l6.459-6.459 9.133 9.133-6.459 6.459z" class="prefix__cls-4" data-name="Path 254" transform="translate(-59.48 -110.866)"/>
            <path id="prefix__Path_256" d="M67.865 376.8l6.459-6.459 9.133 9.133L77 385.936z" class="prefix__cls-4" data-name="Path 256" transform="translate(-28.513 -158.932)"/>
            <path id="prefix__Path_257" d="M75.873 451.477l9.133-9.133 6.459 6.459-9.133 9.133z" class="prefix__cls-3" data-name="Path 257" transform="translate(-31.977 -189.83)"/>
            <path id="prefix__Path_258" d="M323.908 443.473l9.133-9.133 6.459 6.46-9.133 9.133z" class="prefix__cls-4" data-name="Path 258" transform="translate(-138.51 -186.395)"/>
        </g>
        <g id="prefix__flags-2" data-name="flags" transform="translate(535.68 39.775)">
            <path id="prefix__Path_245-2" d="M266.276 0q-2.282 1.9-4.564 3.781A450.888 450.888 0 0 1 3.436 104.923l-1.876.114 50.2 50.235L74.585 95.9l54.769 41.1 18.256-63.931 59.333 41.1 4.564-73.069 54.769 27.4z" class="prefix__cls-1" data-name="Path 245" transform="translate(-.058)"/>
            <g id="prefix__Group_62-2" data-name="Group 62" transform="translate(1.424 141.572)">
                <path id="prefix__Path_246-2" d="M1.424 256c1.629 1.014 3.263 2.023 4.906 3.014a420.239 420.239 0 0 0 259.628 59.643l1.785-.178-38.037 56.259-31.949-54.8-45.641 50.235L129.3 310.8l-54.773 45.67-13.692-68.5L10.63 324.5 1.429 256" class="prefix__cls-2" data-name="Path 246" transform="translate(-1.424 -251.433)"/>
                <circle id="prefix__Ellipse_34-2" cx="9.134" cy="9.134" r="9.134" class="prefix__cls-2" data-name="Ellipse 34" transform="translate(223.692)"/>
            </g>
            <circle id="prefix__Ellipse_36" cx="9.134" cy="9.134" r="9.134" class="prefix__cls-6" data-name="Ellipse 36" transform="translate(51.704 22.834)"/>
            <path id="prefix__Path_247-2" d="M3.9 72.8l6.459-6.459 9.141 9.135-6.459 6.459z" class="prefix__cls-2" data-name="Path 247" transform="translate(-1.064 -28.471)"/>
            <path id="prefix__Path_249-2" d="M211.9 11.478l9.133-9.133L227.5 8.8l-9.133 9.133z" class="prefix__cls-4" data-name="Path 249" transform="translate(-90.403 -1.006)"/>
            <g id="prefix__Group_63-2" data-name="Group 63" transform="translate(80.318 60.705)">
                <path id="prefix__Path_250-2" d="M139.908 115.473l9.133-9.133 6.459 6.46-9.133 9.133z" class="prefix__cls-5" data-name="Path 250" transform="translate(-139.908 -106.34)"/>
                <path id="prefix__Path_251-2" d="M419.91 144.8l6.459-6.459 9.133 9.133-6.459 6.459z" class="prefix__cls-5" data-name="Path 251" transform="translate(-260.07 -120.075)"/>
            </g>
            <path id="prefix__Path_252-2" d="M281.56 216h9.134v13.7h-9.134z" class="prefix__cls-3" data-name="Path 252" transform="translate(-120.319 -92.695)"/>
            <path id="prefix__Path_253-2" d="M323.909 307.466l9.133-9.133 6.459 6.459-9.133 9.133z" class="prefix__cls-5" data-name="Path 253" transform="translate(-138.511 -128.028)"/>
            <path id="prefix__Path_254-2" d="M139.908 264.8l6.459-6.459 9.133 9.133-6.459 6.459z" class="prefix__cls-4" data-name="Path 254" transform="translate(-59.48 -110.866)"/>
            <path id="prefix__Path_255" d="M193.56 424h9.134v13.7h-9.134z" class="prefix__cls-5" data-name="Path 255" transform="translate(-82.523 -181.958)"/>
            <path id="prefix__Path_256-2" d="M67.865 376.8l6.459-6.459 9.133 9.133L77 385.936z" class="prefix__cls-4" data-name="Path 256" transform="translate(-28.513 -158.932)"/>
            <path id="prefix__Path_257-2" d="M75.873 451.477l9.133-9.133 6.459 6.459-9.133 9.133z" class="prefix__cls-3" data-name="Path 257" transform="translate(-31.977 -189.83)"/>
        </g>
        <g id="prefix__flags-3" data-name="flags" transform="translate(1062.68 39.775)">
            <path id="prefix__Path_245-3" d="M266.276 0q-2.282 1.9-4.564 3.781A450.888 450.888 0 0 1 3.436 104.923l-1.876.114 50.2 50.235L74.585 95.9l54.769 41.1 18.256-63.931 59.333 41.1 4.564-73.069 54.769 27.4z" class="prefix__cls-1" data-name="Path 245" transform="translate(-.058)"/>
            <g id="prefix__Group_62-3" data-name="Group 62" transform="translate(1.424 141.572)">
                <path id="prefix__Path_246-3" d="M1.424 256c1.629 1.014 3.263 2.023 4.906 3.014a420.239 420.239 0 0 0 259.628 59.643l1.785-.178-38.037 56.259-31.949-54.8-45.641 50.235L129.3 310.8l-54.773 45.67-13.692-68.5L10.63 324.5 1.429 256" class="prefix__cls-2" data-name="Path 246" transform="translate(-1.424 -251.433)"/>
                <circle id="prefix__Ellipse_34-3" cx="9.134" cy="9.134" r="9.134" class="prefix__cls-2" data-name="Ellipse 34" transform="translate(223.692)"/>
            </g>
            <circle id="prefix__Ellipse_35" cx="9.134" cy="9.134" r="9.134" class="prefix__cls-4" data-name="Ellipse 35" transform="translate(15.202 237.475)"/>
            <circle id="prefix__Ellipse_36-2" cx="9.134" cy="9.134" r="9.134" class="prefix__cls-6" data-name="Ellipse 36" transform="translate(51.704 22.834)"/>
            <path id="prefix__Path_247-3" d="M3.9 72.8l6.459-6.459 9.141 9.135-6.459 6.459z" class="prefix__cls-2" data-name="Path 247" transform="translate(-1.064 -28.471)"/>
            <path id="prefix__Path_248-2" d="M321.56 24h9.134v13.7h-9.134z" class="prefix__cls-3" data-name="Path 248" transform="translate(-137.499 -10.299)"/>
            <path id="prefix__Path_249-3" d="M211.9 11.478l9.133-9.133L227.5 8.8l-9.133 9.133z" class="prefix__cls-4" data-name="Path 249" transform="translate(-90.403 -1.006)"/>
            <g id="prefix__Group_63-3" data-name="Group 63" transform="translate(80.318 60.705)">
                <path id="prefix__Path_250-3" d="M139.908 115.473l9.133-9.133 6.459 6.46-9.133 9.133z" class="prefix__cls-5" data-name="Path 250" transform="translate(-139.908 -106.34)"/>
            </g>
            <path id="prefix__Path_253-3" d="M323.909 307.466l9.133-9.133 6.459 6.459-9.133 9.133z" class="prefix__cls-5" data-name="Path 253" transform="translate(-138.511 -128.028)"/>
            <path id="prefix__Path_254-3" d="M139.908 264.8l6.459-6.459 9.133 9.133-6.459 6.459z" class="prefix__cls-4" data-name="Path 254" transform="translate(-59.48 -110.866)"/>
            <path id="prefix__Path_255-2" d="M193.56 424h9.134v13.7h-9.134z" class="prefix__cls-5" data-name="Path 255" transform="translate(-82.523 -181.958)"/>
            <path id="prefix__Path_257-3" d="M75.873 451.477l9.133-9.133 6.459 6.459-9.133 9.133z" class="prefix__cls-3" data-name="Path 257" transform="translate(-31.977 -189.83)"/>
            <path id="prefix__Path_258-2" d="M323.908 443.473l9.133-9.133 6.459 6.46-9.133 9.133z" class="prefix__cls-4" data-name="Path 258" transform="translate(-138.51 -186.395)"/>
        </g>
        <g id="prefix__flags-4" data-name="flags" transform="translate(1588.68 39.775)">
            <path id="prefix__Path_245-4" d="M266.276 0q-2.282 1.9-4.564 3.781A450.888 450.888 0 0 1 3.436 104.923l-1.876.114 50.2 50.235L74.585 95.9l54.769 41.1 18.256-63.931 59.333 41.1 4.564-73.069 54.769 27.4z" class="prefix__cls-1" data-name="Path 245" transform="translate(-.058)"/>
            <g id="prefix__Group_62-4" data-name="Group 62" transform="translate(1.424 141.572)">
                <path id="prefix__Path_246-4" d="M1.424 256c1.629 1.014 3.263 2.023 4.906 3.014a420.239 420.239 0 0 0 259.628 59.643l1.785-.178-38.037 56.259-31.949-54.8-45.641 50.235L129.3 310.8l-54.773 45.67-13.692-68.5L10.63 324.5 1.429 256" class="prefix__cls-2" data-name="Path 246" transform="translate(-1.424 -251.433)"/>
            </g>
            <circle id="prefix__Ellipse_35-2" cx="9.134" cy="9.134" r="9.134" class="prefix__cls-4" data-name="Ellipse 35" transform="translate(15.202 237.475)"/>
            <path id="prefix__Path_247-4" d="M3.9 72.8l6.459-6.459 9.141 9.135-6.459 6.459z" class="prefix__cls-2" data-name="Path 247" transform="translate(-1.064 -28.471)"/>
            <path id="prefix__Path_248-3" d="M321.56 24h9.134v13.7h-9.134z" class="prefix__cls-3" data-name="Path 248" transform="translate(-137.499 -10.299)"/>
            <g id="prefix__Group_63-4" data-name="Group 63" transform="translate(80.318 60.705)">
                <path id="prefix__Path_250-4" d="M139.908 115.473l9.133-9.133 6.459 6.46-9.133 9.133z" class="prefix__cls-5" data-name="Path 250" transform="translate(-139.908 -106.34)"/>
            </g>
            <path id="prefix__Path_252-3" d="M281.56 216h9.134v13.7h-9.134z" class="prefix__cls-3" data-name="Path 252" transform="translate(-120.319 -92.695)"/>
            <path id="prefix__Path_253-4" d="M323.909 307.466l9.133-9.133 6.459 6.459-9.133 9.133z" class="prefix__cls-5" data-name="Path 253" transform="translate(-138.511 -128.028)"/>
            <path id="prefix__Path_255-3" d="M193.56 424h9.134v13.7h-9.134z" class="prefix__cls-5" data-name="Path 255" transform="translate(-82.523 -181.958)"/>
            <path id="prefix__Path_256-3" d="M67.865 376.8l6.459-6.459 9.133 9.133L77 385.936z" class="prefix__cls-4" data-name="Path 256" transform="translate(-28.513 -158.932)"/>
            <path id="prefix__Path_258-3" d="M323.908 443.473l9.133-9.133 6.459 6.46-9.133 9.133z" class="prefix__cls-4" data-name="Path 258" transform="translate(-138.51 -186.395)"/>
        </g>
        <g id="prefix__flags-5" data-name="flags" transform="translate(268.68 39.775)">
            <path id="prefix__Path_245-5" d="M1.56 0q2.288 1.9 4.576 3.781a452.7 452.7 0 0 0 258.936 101.142l1.881.114-50.333 50.235L193.741 95.9 138.832 137l-18.3-63.936-59.485 41.1L56.469 41.1 1.56 68.5z" class="prefix__cls-1" data-name="Path 245" transform="translate(1.393)"/>
            <g id="prefix__Group_62-5" data-name="Group 62" transform="translate(1.424 141.572)">
                <path id="prefix__Path_246-5" d="M268.424 256c-1.634 1.014-3.272 2.023-4.919 3.014A422.178 422.178 0 0 1 3.213 318.657l-1.789-.178 38.134 56.259 32.03-54.8 45.758 50.235 22.879-59.373 54.909 45.668 13.727-68.5 50.334 36.532 9.225-68.5" class="prefix__cls-2" data-name="Path 246" transform="translate(-1.424 -251.433)"/>
            </g>
            <ellipse id="prefix__Ellipse_35-3" cx="9.157" cy="9.134" class="prefix__cls-4" data-name="Ellipse 35" rx="9.157" ry="9.134" transform="translate(236.297 237.475)"/>
            <path id="prefix__Path_247-5" d="M19.535 72.8l-6.475-6.457-9.16 9.133 6.475 6.459z" class="prefix__cls-2" data-name="Path 247" transform="translate(247.47 -28.471)"/>
            <path id="prefix__Path_249-4" d="M227.535 11.478l-9.156-9.133L211.9 8.8l9.156 9.133z" class="prefix__cls-4" data-name="Path 249" transform="translate(-79.495 -1.006)"/>
            <g id="prefix__Group_63-5" data-name="Group 63" transform="translate(13.448 60.705)">
                <path id="prefix__Path_250-5" d="M155.539 115.473l-9.156-9.133-6.475 6.459 9.156 9.133z" class="prefix__cls-5" data-name="Path 250" transform="translate(20.341 -106.34)"/>
                <path id="prefix__Path_251-3" d="M435.541 144.8l-6.475-6.459-9.156 9.133 6.475 6.459z" class="prefix__cls-5" data-name="Path 251" transform="translate(-419.91 -120.075)"/>
            </g>
            <path id="prefix__Path_252-4" d="M290.717 216h-9.157v13.7h9.157z" class="prefix__cls-3" data-name="Path 252" transform="translate(-182.519 -92.695)"/>
            <path id="prefix__Path_253-5" d="M339.54 307.466l-9.156-9.133-6.475 6.459 9.156 9.133z" class="prefix__cls-5" data-name="Path 253" transform="translate(-255.561 -128.028)"/>
            <path id="prefix__Path_254-4" d="M155.539 264.8l-6.475-6.459-9.156 9.133 6.475 6.459z" class="prefix__cls-4" data-name="Path 254" transform="translate(33.679 -110.866)"/>
            <path id="prefix__Path_256-4" d="M83.5 376.8l-6.475-6.459-9.156 9.133 6.475 6.459z" class="prefix__cls-4" data-name="Path 256" transform="translate(146.903 -158.932)"/>
            <path id="prefix__Path_257-4" d="M91.5 451.477l-9.156-9.133-6.471 6.456 9.156 9.133z" class="prefix__cls-3" data-name="Path 257" transform="translate(134.339 -189.83)"/>
            <path id="prefix__Path_258-4" d="M339.539 443.473l-9.156-9.133-6.475 6.459 9.156 9.133z" class="prefix__cls-4" data-name="Path 258" transform="translate(-255.559 -186.395)"/>
        </g>
        <g id="prefix__flags-6" data-name="flags" transform="translate(795.68 39.775)">
            <path id="prefix__Path_245-6" d="M1.56 0q2.288 1.9 4.576 3.781a452.7 452.7 0 0 0 258.936 101.142l1.881.114-50.333 50.235L193.741 95.9 138.832 137l-18.3-63.936-59.485 41.1L56.469 41.1 1.56 68.5z" class="prefix__cls-1" data-name="Path 245" transform="translate(1.393)"/>
            <g id="prefix__Group_62-6" data-name="Group 62" transform="translate(1.424 141.572)">
                <path id="prefix__Path_246-6" d="M268.424 256c-1.634 1.014-3.272 2.023-4.919 3.014A422.178 422.178 0 0 1 3.213 318.657l-1.789-.178 38.134 56.259 32.03-54.8 45.758 50.235 22.879-59.373 54.909 45.668 13.727-68.5 50.334 36.532 9.225-68.5" class="prefix__cls-2" data-name="Path 246" transform="translate(-1.424 -251.433)"/>
                <ellipse id="prefix__Ellipse_34-4" cx="9.157" cy="9.134" class="prefix__cls-2" data-name="Ellipse 34" rx="9.157" ry="9.134" transform="translate(24.422)"/>
            </g>
            <ellipse id="prefix__Ellipse_36-3" cx="9.157" cy="9.134" class="prefix__cls-6" data-name="Ellipse 36" rx="9.157" ry="9.134" transform="translate(199.701 22.834)"/>
            <path id="prefix__Path_248-4" d="M330.717 24h-9.157v13.7h9.157z" class="prefix__cls-3" data-name="Path 248" transform="translate(-245.397 -10.299)"/>
            <path id="prefix__Path_249-5" d="M227.535 11.478l-9.156-9.133L211.9 8.8l9.156 9.133z" class="prefix__cls-4" data-name="Path 249" transform="translate(-79.495 -1.006)"/>
            <g id="prefix__Group_63-6" data-name="Group 63" transform="translate(13.448 60.705)">
                <path id="prefix__Path_250-6" d="M155.539 115.473l-9.156-9.133-6.475 6.459 9.156 9.133z" class="prefix__cls-5" data-name="Path 250" transform="translate(20.341 -106.34)"/>
                <path id="prefix__Path_251-4" d="M435.541 144.8l-6.475-6.459-9.156 9.133 6.475 6.459z" class="prefix__cls-5" data-name="Path 251" transform="translate(-419.91 -120.075)"/>
            </g>
            <path id="prefix__Path_253-6" d="M339.54 307.466l-9.156-9.133-6.475 6.459 9.156 9.133z" class="prefix__cls-5" data-name="Path 253" transform="translate(-255.561 -128.028)"/>
            <path id="prefix__Path_254-5" d="M155.539 264.8l-6.475-6.459-9.156 9.133 6.475 6.459z" class="prefix__cls-4" data-name="Path 254" transform="translate(33.679 -110.866)"/>
            <path id="prefix__Path_255-4" d="M202.717 424h-9.157v13.7h9.157z" class="prefix__cls-5" data-name="Path 255" transform="translate(-44.187 -181.958)"/>
            <path id="prefix__Path_256-5" d="M83.5 376.8l-6.475-6.459-9.156 9.133 6.475 6.459z" class="prefix__cls-4" data-name="Path 256" transform="translate(146.903 -158.932)"/>
            <path id="prefix__Path_258-5" d="M339.539 443.473l-9.156-9.133-6.475 6.459 9.156 9.133z" class="prefix__cls-4" data-name="Path 258" transform="translate(-255.559 -186.395)"/>
        </g>
        <g id="prefix__flags-7" data-name="flags" transform="translate(1321.68 39.775)">
            <path id="prefix__Path_245-7" d="M1.56 0q2.288 1.9 4.576 3.781a452.7 452.7 0 0 0 258.936 101.142l1.881.114-50.333 50.235L193.741 95.9 138.832 137l-18.3-63.936-59.485 41.1L56.469 41.1 1.56 68.5z" class="prefix__cls-1" data-name="Path 245" transform="translate(1.393)"/>
            <g id="prefix__Group_62-7" data-name="Group 62" transform="translate(1.424 141.572)">
                <path id="prefix__Path_246-7" d="M268.424 256c-1.634 1.014-3.272 2.023-4.919 3.014A422.178 422.178 0 0 1 3.213 318.657l-1.789-.178 38.134 56.259 32.03-54.8 45.758 50.235 22.879-59.373 54.909 45.668 13.727-68.5 50.334 36.532 9.225-68.5" class="prefix__cls-2" data-name="Path 246" transform="translate(-1.424 -251.433)"/>
                <ellipse id="prefix__Ellipse_34-5" cx="9.157" cy="9.134" class="prefix__cls-2" data-name="Ellipse 34" rx="9.157" ry="9.134" transform="translate(24.422)"/>
            </g>
            <ellipse id="prefix__Ellipse_36-4" cx="9.157" cy="9.134" class="prefix__cls-6" data-name="Ellipse 36" rx="9.157" ry="9.134" transform="translate(199.701 22.834)"/>
            <path id="prefix__Path_247-6" d="M19.535 72.8l-6.475-6.457-9.16 9.133 6.475 6.459z" class="prefix__cls-2" data-name="Path 247" transform="translate(247.47 -28.471)"/>
            <path id="prefix__Path_248-5" d="M330.717 24h-9.157v13.7h9.157z" class="prefix__cls-3" data-name="Path 248" transform="translate(-245.397 -10.299)"/>
            <path id="prefix__Path_249-6" d="M227.535 11.478l-9.156-9.133L211.9 8.8l9.156 9.133z" class="prefix__cls-4" data-name="Path 249" transform="translate(-79.495 -1.006)"/>
            <g id="prefix__Group_63-7" data-name="Group 63" transform="translate(13.448 60.705)">
                <path id="prefix__Path_250-7" d="M155.539 115.473l-9.156-9.133-6.475 6.459 9.156 9.133z" class="prefix__cls-5" data-name="Path 250" transform="translate(20.341 -106.34)"/>
                <path id="prefix__Path_251-5" d="M435.541 144.8l-6.475-6.459-9.156 9.133 6.475 6.459z" class="prefix__cls-5" data-name="Path 251" transform="translate(-419.91 -120.075)"/>
            </g>
            <path id="prefix__Path_252-5" d="M290.717 216h-9.157v13.7h9.157z" class="prefix__cls-3" data-name="Path 252" transform="translate(-182.519 -92.695)"/>
            <path id="prefix__Path_253-7" d="M339.54 307.466l-9.156-9.133-6.475 6.459 9.156 9.133z" class="prefix__cls-5" data-name="Path 253" transform="translate(-255.561 -128.028)"/>
            <path id="prefix__Path_254-6" d="M155.539 264.8l-6.475-6.459-9.156 9.133 6.475 6.459z" class="prefix__cls-4" data-name="Path 254" transform="translate(33.679 -110.866)"/>
            <path id="prefix__Path_257-5" d="M91.5 451.477l-9.156-9.133-6.471 6.456 9.156 9.133z" class="prefix__cls-3" data-name="Path 257" transform="translate(134.339 -189.83)"/>
            <path id="prefix__Path_258-6" d="M339.539 443.473l-9.156-9.133-6.475 6.459 9.156 9.133z" class="prefix__cls-4" data-name="Path 258" transform="translate(-255.559 -186.395)"/>
        </g>
        <g id="prefix__flags-8" data-name="flags" transform="translate(1850.68 39.775)">
            <path id="prefix__Path_245-8" d="M1.56 0q2.288 1.9 4.576 3.781a452.7 452.7 0 0 0 258.936 101.142l1.881.114-50.333 50.235L193.741 95.9 138.832 137l-18.3-63.936-59.485 41.1L56.469 41.1 1.56 68.5z" class="prefix__cls-1" data-name="Path 245" transform="translate(1.393)"/>
            <g id="prefix__Group_62-8" data-name="Group 62" transform="translate(1.424 141.572)">
                <path id="prefix__Path_246-8" d="M268.424 256c-1.634 1.014-3.272 2.023-4.919 3.014A422.178 422.178 0 0 1 3.213 318.657l-1.789-.178 38.134 56.259 32.03-54.8 45.758 50.235 22.879-59.373 54.909 45.668 13.727-68.5 50.334 36.532 9.225-68.5" class="prefix__cls-2" data-name="Path 246" transform="translate(-1.424 -251.433)"/>
                <ellipse id="prefix__Ellipse_34-6" cx="9.157" cy="9.134" class="prefix__cls-2" data-name="Ellipse 34" rx="9.157" ry="9.134" transform="translate(24.422)"/>
            </g>
            <ellipse id="prefix__Ellipse_35-4" cx="9.157" cy="9.134" class="prefix__cls-4" data-name="Ellipse 35" rx="9.157" ry="9.134" transform="translate(236.297 237.475)"/>
            <ellipse id="prefix__Ellipse_36-5" cx="9.157" cy="9.134" class="prefix__cls-6" data-name="Ellipse 36" rx="9.157" ry="9.134" transform="translate(199.701 22.834)"/>
            <path id="prefix__Path_247-7" d="M19.535 72.8l-6.475-6.457-9.16 9.133 6.475 6.459z" class="prefix__cls-2" data-name="Path 247" transform="translate(247.47 -28.471)"/>
            <path id="prefix__Path_248-6" d="M330.717 24h-9.157v13.7h9.157z" class="prefix__cls-3" data-name="Path 248" transform="translate(-245.397 -10.299)"/>
            <path id="prefix__Path_249-7" d="M227.535 11.478l-9.156-9.133L211.9 8.8l9.156 9.133z" class="prefix__cls-4" data-name="Path 249" transform="translate(-79.495 -1.006)"/>
            <g id="prefix__Group_63-8" data-name="Group 63" transform="translate(13.448 60.705)">
                <path id="prefix__Path_250-8" d="M155.539 115.473l-9.156-9.133-6.475 6.459 9.156 9.133z" class="prefix__cls-5" data-name="Path 250" transform="translate(20.341 -106.34)"/>
                <path id="prefix__Path_251-6" d="M435.541 144.8l-6.475-6.459-9.156 9.133 6.475 6.459z" class="prefix__cls-5" data-name="Path 251" transform="translate(-419.91 -120.075)"/>
            </g>
            <path id="prefix__Path_252-6" d="M290.717 216h-9.157v13.7h9.157z" class="prefix__cls-3" data-name="Path 252" transform="translate(-182.519 -92.695)"/>
            <path id="prefix__Path_253-8" d="M339.54 307.466l-9.156-9.133-6.475 6.459 9.156 9.133z" class="prefix__cls-5" data-name="Path 253" transform="translate(-255.561 -128.028)"/>
            <path id="prefix__Path_254-7" d="M155.539 264.8l-6.475-6.459-9.156 9.133 6.475 6.459z" class="prefix__cls-4" data-name="Path 254" transform="translate(33.679 -110.866)"/>
            <path id="prefix__Path_255-5" d="M202.717 424h-9.157v13.7h9.157z" class="prefix__cls-5" data-name="Path 255" transform="translate(-44.187 -181.958)"/>
            <path id="prefix__Path_256-6" d="M83.5 376.8l-6.475-6.459-9.156 9.133 6.475 6.459z" class="prefix__cls-4" data-name="Path 256" transform="translate(146.903 -158.932)"/>
            <path id="prefix__Path_257-6" d="M91.5 451.477l-9.156-9.133-6.471 6.456 9.156 9.133z" class="prefix__cls-3" data-name="Path 257" transform="translate(134.339 -189.83)"/>
            <path id="prefix__Path_258-7" d="M339.539 443.473l-9.156-9.133-6.475 6.459 9.156 9.133z" class="prefix__cls-4" data-name="Path 258" transform="translate(-255.559 -186.395)"/>
        </g>
    </g>
</svg>
