<svg xmlns="http://www.w3.org/2000/svg" width="206.172" height="223.805" viewBox="0 0 206.172 223.805">
    <defs>
        <style>
            .cls-1{fill:#f99830}.cls-2{fill:#0dbaa1}.cls-6{fill:#ffc107}
        </style>
    </defs>
    <g id="welcome_illustration" transform="translate(-520.009 -209.817)">
        <g id="birthday" transform="translate(511.756 238.378)">
            <path id="Path_238" d="M141.536 328.3h10.356c1.711 0 2.809-1.067 2.4-3.226l-1.994-10.536a39.537 39.537 0 0 1-11.409.119l-2.183 10.848c-.113 1.014.077 2.795 2.83 2.795z" class="cls-1" transform="translate(-65.685 -194.596)"/>
            <path id="Path_239" d="M322.758 307.614c-.53 2.627.608 3.808 2.738 3.808h11.865c1.688 0 2.8-1.129 2.344-3.535l-2.188-11.559a43.373 43.373 0 0 1-12.514.13l-2.245 11.156z" class="cls-2" transform="translate(-179.487 -183.328)"/>
            <path id="Path_240" fill="#17ddc0" d="M306.582 91.586c-8.573 16.1-24.143 26.869-41.927 26.869-27.036 0-48.955-24.881-48.955-55.573S237.619 7.31 264.656 7.31c34.263 0 57.93 39.035 45.773 75.321" transform="translate(-113.334 -4.522)"/>
            <path id="Path_241" d="M233.944 53.252c0-14.982 5.635-28.469 14.628-37.884-19.135 7.554-32.87 28.2-32.87 52.5 0 30.692 21.918 55.573 48.955 55.573 19.226 0 35.807-12.618 43.4-30.294-29.4 27.307-74.113 3.71-74.113-39.895z" class="cls-2" transform="translate(-113.335 -9.508)"/>
            <path id="Path_242" fill="#ffca54" d="M114.179 62.511c-28.9-26.842-72.872-3.648-72.872 39.232 0 27.982 19.983 50.666 44.632 50.666 15.394 0 28.968-8.848 36.992-22.31-16.584-18.007-19.573-45.981-8.752-67.588z" transform="translate(-5.442 -31.576)"/>
            <path id="Path_243" d="M60.077 92.364a47.854 47.854 0 0 1 23.064-40.955C59.8 53.048 41.307 75.057 41.307 101.972c0 27.982 19.983 50.666 44.632 50.666 11.5 0 21.976-4.936 29.888-13.041a47.891 47.891 0 0 1-55.75-47.233z" class="cls-1" transform="translate(-5.442 -31.805)"/>
            <path id="Path_244" fill="#231f20" d="M150.924 0c-18.121 0-34.1 10.508-43.412 26.4-31.574-24.881-75 .72-75 43.989 0 26.168 16.705 48.02 38.733 52.743l-2.118 10.53a3.083 3.083 0 0 0 .637 2.561c1.177 1.437 2.255 1.13 7.793 1.13.67 2.821 1.158 9.4-4.442 19.393a28.972 28.972 0 0 0-1.385 26.883 35.2 35.2 0 0 0 7.51 10.807 3.082 3.082 0 0 0 4.155-4.555 28.976 28.976 0 0 1-6.034-8.765c-3.187-7.141-2.805-14.326 1.135-21.357 5.76-10.278 6.026-17.92 5.312-22.407H88.9a3.085 3.085 0 0 0 2.978-3.884l-1.99-10.513c10.932-2.553 20.776-9.368 27.766-19.381a49.519 49.519 0 0 0 23.828 12.642l-2.382 11.839a3.082 3.082 0 0 0 .638 2.561c1.165 1.422 2.3 1.13 7.061 1.13-.842 4.807-.692 13.249 5.742 24.73 10.374 18.513-4.788 32.81-5.433 33.405a3.083 3.083 0 1 0 4.155 4.555 38.291 38.291 0 0 0 8.165-11.756c3.006-6.737 5.185-17.274-1.508-29.219-6.356-11.342-5.652-18.665-4.851-21.717h7.426a3.085 3.085 0 0 0 2.977-3.885l-2.24-11.832c15.12-3.433 27.2-13.974 34.3-27.314a3.083 3.083 0 0 0-5.443-2.9c-9.7 18.213-26.739 26.593-43.048 25.015-23.934-2.323-42.811-25.805-41.895-54.222.938-28.318 21.4-50.447 45.782-50.447 32.018 0 54.288 36.893 42.8 71.176a3.083 3.083 0 1 0 5.846 1.959C212.414 40.971 187.118 0 150.924 0zm4.21 117l1.625 8.584h-10.877l1.713-8.513a47.314 47.314 0 0 0 7.539-.071zm-71.342 6.93l1.375 7.261h-9.255l1.449-7.2a43.99 43.99 0 0 0 6.431-.063zm-8.436-6.33c-20.62-2.749-36.68-22.87-36.68-47.21 0-38.716 38.537-61.266 65.927-38.415-9.613 21.247-7.157 48.359 8.689 67.053C104.2 112.8 89.655 119.5 75.356 117.6z"/>
        </g>
        <path id="star" d="M15.867 5.869a.834.834 0 0 0-.728-.543l-4.592-.389L8.732.971a.87.87 0 0 0-1.555 0L5.361 4.937l-4.592.389a.836.836 0 0 0-.727.543.755.755 0 0 0 .247.838L3.76 9.548l-1.024 4.207a.763.763 0 0 0 .329.815.89.89 0 0 0 .929.038l3.96-2.208 3.959 2.209a.893.893 0 0 0 .929-.038.764.764 0 0 0 .329-.815l-1.022-4.208 3.471-2.84a.756.756 0 0 0 .247-.839zm0 0" class="cls-6" transform="translate(577.259 215.491)"/>
        <path id="star-2" d="M18.785 6.857a.988.988 0 0 0-.862-.642l-5.436-.461-2.15-4.7a1.03 1.03 0 0 0-1.841 0l-2.149 4.7-5.437.461a.989.989 0 0 0-.861.642.894.894 0 0 0 .293.992l4.109 3.363-1.212 4.982a.9.9 0 0 0 .389.964 1.054 1.054 0 0 0 1.1.045l4.689-2.615L14.1 17.2a1.057 1.057 0 0 0 1.1-.045.9.9 0 0 0 .389-.964l-1.212-4.981 4.109-3.362a.9.9 0 0 0 .299-.991zm0 0" class="cls-6" transform="translate(619.796 359.183)"/>
        <path id="star-3" d="M30.329 10.769a1.6 1.6 0 0 0-1.391-1.037l-8.777-.744-3.47-7.581a1.664 1.664 0 0 0-2.972 0l-3.471 7.58-8.778.745a1.6 1.6 0 0 0-1.39 1.037 1.443 1.443 0 0 0 .473 1.6L7.186 17.8 5.23 25.844a1.459 1.459 0 0 0 .629 1.556 1.7 1.7 0 0 0 1.775.072l7.566-4.221 7.568 4.223a1.706 1.706 0 0 0 1.776-.072 1.46 1.46 0 0 0 .629-1.557L23.221 17.8l6.634-5.429a1.445 1.445 0 0 0 .474-1.602zm0 0" class="cls-6" transform="translate(520.009 250.007)"/>
        <path id="star-4" d="M31.852 11.285a1.675 1.675 0 0 0-1.461-1.085l-9.217-.781-3.646-7.966a1.747 1.747 0 0 0-3.122 0l-3.645 7.96-9.218.787a1.678 1.678 0 0 0-1.46 1.089 1.515 1.515 0 0 0 .5 1.683l6.967 5.7-2.057 8.444a1.532 1.532 0 0 0 .66 1.635 1.787 1.787 0 0 0 1.864.076l7.951-4.435 7.948 4.435a1.792 1.792 0 0 0 1.866-.076 1.533 1.533 0 0 0 .66-1.635l-2.055-8.446 6.967-5.7a1.518 1.518 0 0 0 .498-1.685zm0 0" class="cls-6" transform="translate(694.246 209.325)"/>
    </g>
</svg>
